<?xml version="1.0" standalone="no"?>
<!DOCTYPE svg PUBLIC "-//W3C//DTD SVG 1.1//EN" "http://www.w3.org/Graphics/SVG/1.1/DTD/svg11.dtd" >
<svg xmlns="http://www.w3.org/2000/svg" xmlns:xlink="http://www.w3.org/1999/xlink" version="1.1">
<metadata>
Created by FontForge 20200314 at Fri Feb 22 08:03:15 2019
 By Unknown
Copyright (c) 2019 by Vasily Draigo aka Daymarius. All rights reserved.
</metadata>
<defs>
<font id="RetroGaming" horiz-adv-x="3165" >
  <font-face 
    font-family="Retro Gaming"
    font-weight="400"
    font-stretch="normal"
    units-per-em="4096"
    panose-1="0 0 4 0 0 0 0 0 0 0"
    ascent="3276"
    descent="-820"
    x-height="1861"
    cap-height="2978"
    bbox="-186 -1117 5213 4096"
    underline-thickness="204"
    underline-position="307"
    unicode-range="U+0020-FB04"
  />
<missing-glyph horiz-adv-x="2454" 
d="M2139 -987h-1277v97h161v95h159v97h159v95h160v95h-639v192h1277v-95h-160v-97h-159v-95h-159v-95h-160v-97h638v-192zM1979 262h-956v-287h956v287zM2139 -120h-160v-95h-956v95h-161v479h161v95h956v-95h160v-479zM2139 745h-160v-96h-159v-96h-638v96h-159v96h-161
v382h161v97h159v-192h-159v-192h159v-95h638v95h159v192h-399v-192h-159v384h718v-479zM2139 1323h-1277v191h1117v383h160v-574zM2139 1996h-479v-48h-159v-95h-160v-95h-479v190h479v97h160v95h-160v95h-479v192h479v-95h160v-97h159v-47h479v-192zM1341 3005h-318v-287
h318v287zM2139 2526h-1277v574h161v97h318v-97h160v-382h638v-192zM2140 3296h-1278v192h479v287h-479v191h1278v-191h-639v-287h639v-192zM2269 -1117v5213h-1537v-5213h1537z" />
    <glyph glyph-name="copyright" unicode="&#x28;c&#x29;" horiz-adv-x="3909" 
d="M1675 744v373h-372v744h372v373h1117v-373h-744v-744h744v-373h-1117zM2978 372v2234h-1861v-2234h1861zM744 0v372h-372v2234h372v372h2607v-372h372v-2234h-372v-372h-2607z" />
    <glyph glyph-name="registered" unicode="&#x28;r&#x29;" horiz-adv-x="2792" 
d="M744 744v373h1490v-373h-1490zM1675 1861v187h-372v-187h372zM930 1303v1117h1118v-745h-187v-186h187v-186h-559v186h-186v-186h-373zM372 1117v1489h372v-1489h-372zM2234 1117v1489h372v-1489h-372zM744 2606v372h1490v-372h-1490z" />
    <glyph glyph-name="trademark" unicode="&#x2d;tm&#x2d;" horiz-adv-x="3909" 
d="M2606 1861v373h372v-373h-372zM930 1489v1117h-558v372h1862v-372h372v-372h-372v-745h-373v1117h-558v-1117h-373zM3351 1489v745h-373v372h373v372h372v-1489h-372z" />
    <glyph glyph-name=".notdef" horiz-adv-x="2454" 
d="M2139 -987h-1277v97h161v95h159v97h159v95h160v95h-639v192h1277v-95h-160v-97h-159v-95h-159v-95h-160v-97h638v-192zM1979 262h-956v-287h956v287zM2139 -120h-160v-95h-956v95h-161v479h161v95h956v-95h160v-479zM2139 745h-160v-96h-159v-96h-638v96h-159v96h-161
v382h161v97h159v-192h-159v-192h159v-95h638v95h159v192h-399v-192h-159v384h718v-479zM2139 1323h-1277v191h1117v383h160v-574zM2139 1996h-479v-48h-159v-95h-160v-95h-479v190h479v97h160v95h-160v95h-479v192h479v-95h160v-97h159v-47h479v-192zM1341 3005h-318v-287
h318v287zM2139 2526h-1277v574h161v97h318v-97h160v-382h638v-192zM2140 3296h-1278v192h479v287h-479v191h1278v-191h-639v-287h639v-192zM2269 -1117v5213h-1537v-5213h1537z" />
    <glyph glyph-name="glyph1" horiz-adv-x="186" 
 />
    <glyph glyph-name="glyph2" horiz-adv-x="186" 
 />
    <glyph glyph-name="space" unicode=" " horiz-adv-x="1489" 
 />
    <glyph glyph-name="exclam" unicode="!" horiz-adv-x="1303" 
d="M372 0v744h745v-744h-745zM372 1117v1861h745v-1861h-745z" />
    <glyph glyph-name="quotedbl" unicode="&#x22;" horiz-adv-x="2420" 
d="M372 1861v1117h745v-1117h-745zM1489 1861v1117h745v-1117h-745z" />
    <glyph glyph-name="numbersign" unicode="#" horiz-adv-x="4282" 
d="M2606 1117v744h-745v-744h745zM1117 0v744h-745v373h745v744h-745v373h745v744h744v-744h745v744h745v-744h745v-373h-745v-744h745v-373h-745v-744h-745v744h-745v-744h-744z" />
    <glyph glyph-name="dollar" unicode="$" 
d="M2234 372v1117h-373v-1117h373zM1489 1861v745h-372v-745h372zM1303 -744v744h-559v372h-372v372h745v-372h372v1117h-745v372h-372v745h372v372h559v745h745v-745h558v-372h372v-372h-744v372h-373v-745h745v-372h372v-1117h-372v-372h-558v-744h-745z" />
    <glyph glyph-name="percent" unicode="%" 
d="M1861 0v744h373v-372h372v-372h-745zM2606 372v372h-372v373h744v-745h-372zM372 1861v745h372v-372h373v-373h-745zM1117 2234v372h-373v372h745v-744h-372zM372 0v744h372v373h373v372h372v372h372v373h373v744h744v-744h-372v-373h-372v-372h-373v-372h-372v-373h-372
v-744h-745z" />
    <glyph glyph-name="ampersand" unicode="&#x26;" horiz-adv-x="3537" 
d="M744 0v372h-372v1117h372v372h-372v745h372v372h1862v-372h372v-372h-744v372h-1117v-745h744v-372h-744v-1117h931v1117h1303v-372h-559v-745h-372v-372h-1676z" />
    <glyph glyph-name="quotesingle" unicode="'" horiz-adv-x="1303" 
d="M372 1861v1117h745v-1117h-745z" />
    <glyph glyph-name="parenleft" unicode="(" horiz-adv-x="2048" 
d="M1117 0v372h-373v372h-372v1490h372v372h373v372h744v-372h-372v-372h-372v-1490h372v-372h372v-372h-744z" />
    <glyph glyph-name="parenright" unicode=")" horiz-adv-x="2048" 
d="M372 0v372h372v372h373v1490h-373v372h-372v372h745v-372h372v-372h372v-1490h-372v-372h-372v-372h-745z" />
    <glyph glyph-name="asterisk" unicode="*" horiz-adv-x="3537" 
d="M744 744v373h559v372h-931v372h931v373h-559v372h931v-372h373v372h930v-372h-558v-373h931v-372h-931v-372h558v-373h-930v373h-373v-373h-931z" />
    <glyph glyph-name="plus" unicode="+" horiz-adv-x="2792" 
d="M1117 558v745h-745v372h745v745h744v-745h745v-372h-745v-745h-744z" />
    <glyph glyph-name="comma" unicode="," horiz-adv-x="1303" 
d="M0 -372v372h372v744h745v-744h-373v-372h-744z" />
    <glyph glyph-name="hyphen" unicode="-" horiz-adv-x="2048" 
d="M372 1303v372h1489v-372h-1489z" />
    <glyph glyph-name="period" unicode="." horiz-adv-x="1303" 
d="M372 0v744h745v-744h-745z" />
    <glyph glyph-name="slash" unicode="/" 
d="M372 0v744h372v373h373v372h372v372h372v373h373v744h744v-744h-372v-373h-372v-372h-373v-372h-372v-373h-372v-744h-745z" />
    <glyph glyph-name="zero" unicode="0" 
d="M2234 372v1117h-373v-372h-372v-373h-372v-372h1117zM1489 1489v372h372v373h373v372h-1117v-1117h372zM744 0v372h-372v2234h372v372h1862v-372h372v-2234h-372v-372h-1862z" />
    <glyph glyph-name="one" unicode="1" horiz-adv-x="2048" 
d="M372 0v372h372v1862h-372v372h372v372h745v-2606h372v-372h-1489z" />
    <glyph glyph-name="two" unicode="2" 
d="M372 0v1489h372v372h1490v745h-1117v-372h-745v372h372v372h1862v-372h372v-745h-372v-372h-1489v-1117h1117v372h744v-744h-2606z" />
    <glyph glyph-name="three" unicode="3" 
d="M744 0v372h-372v372h745v-372h1117v1117h-1117v372h372v373h372v372h-1489v372h2606v-372h-372v-372h-372v-373h372v-372h372v-1117h-372v-372h-1862z" />
    <glyph glyph-name="four" unicode="4" 
d="M2234 1489v1117h-373v-372h-372v-373h-372v-372h1117zM2234 0v1117h-1862v744h372v373h373v372h372v372h1489v-2978h-744z" />
    <glyph glyph-name="five" unicode="5" 
d="M744 0v372h-372v372h745v-372h1117v1117h-1862v1489h2234v-372h-1489v-745h1489v-372h372v-1117h-372v-372h-1862z" />
    <glyph glyph-name="six" unicode="6" 
d="M2234 372v1117h-1117v-1117h1117zM744 0v372h-372v2234h372v372h1862v-372h372v-372h-744v372h-1117v-745h1489v-372h372v-1117h-372v-372h-1862z" />
    <glyph glyph-name="seven" unicode="7" 
d="M1117 0v1489h372v372h372v373h373v372h-1117v-372h-745v744h2606v-744h-372v-373h-372v-372h-373v-1489h-744z" />
    <glyph glyph-name="eight" unicode="8" 
d="M2234 372v1117h-1117v-1117h1117zM2234 1861v745h-1117v-745h1117zM744 0v372h-372v1117h372v372h-372v745h372v372h1862v-372h372v-745h-372v-372h372v-1117h-372v-372h-1862z" />
    <glyph glyph-name="nine" unicode="9" 
d="M2234 1489v1117h-1117v-1117h1117zM744 0v372h-372v372h745v-372h1117v745h-1490v372h-372v1117h372v372h1862v-372h372v-2234h-372v-372h-1862z" />
    <glyph glyph-name="colon" unicode=":" horiz-adv-x="1303" 
d="M372 0v744h745v-744h-745zM372 1489v745h745v-745h-745z" />
    <glyph glyph-name="semicolon" unicode=";" horiz-adv-x="1303" 
d="M0 -372v372h372v744h745v-744h-373v-372h-744zM372 1489v745h745v-745h-745z" />
    <glyph glyph-name="less" unicode="&#x3c;" horiz-adv-x="2420" 
d="M1489 0v372h-372v372h-373v373h-372v372h372v372h373v373h372v372h745v-372h-373v-373h-372v-372h-372v-372h372v-373h372v-372h373v-372h-745z" />
    <glyph glyph-name="equal" unicode="=" horiz-adv-x="2420" 
d="M372 744v373h1862v-373h-1862zM372 1489v372h1862v-372h-1862z" />
    <glyph glyph-name="greater" unicode="&#x3e;" horiz-adv-x="2420" 
d="M372 0v372h372v372h373v373h372v372h-372v372h-373v373h-372v372h745v-372h372v-373h372v-372h373v-372h-373v-373h-372v-372h-372v-372h-745z" />
    <glyph glyph-name="question" unicode="?" 
d="M1117 0v744h744v-744h-744zM1117 1117v372h372v372h745v745h-1117v-372h-745v372h372v372h1862v-372h372v-745h-372v-372h-745v-372h-744z" />
    <glyph glyph-name="at" unicode="@" 
d="M744 0v372h1862v-372h-1862zM1861 1117v744h-372v-744h372zM372 372v2234h372v-2234h-372zM1117 744v1490h1117v-1117h372v1489h372v-1862h-1861zM744 2606v372h1862v-372h-1862z" />
    <glyph glyph-name="A" unicode="A" 
d="M2234 1489v745h-373v372h-372v-372h-372v-745h1117zM372 0v2234h372v372h373v372h1117v-372h372v-372h372v-2234h-744v1117h-1117v-1117h-745z" />
    <glyph glyph-name="B" unicode="B" 
d="M2234 372v1117h-1117v-1117h1117zM2234 1861v745h-1117v-745h1117zM372 0v2978h2234v-372h372v-745h-372v-372h372v-1117h-372v-372h-2234z" />
    <glyph glyph-name="C" unicode="C" 
d="M1117 0v372h-373v372h-372v1490h372v372h373v372h1489v-372h372v-372h-744v372h-745v-372h-372v-1490h372v-372h745v372h744v-372h-372v-372h-1489z" />
    <glyph glyph-name="D" unicode="D" 
d="M1861 372v372h373v1490h-373v372h-744v-2234h744zM372 0v2978h1862v-372h372v-372h372v-1490h-372v-372h-372v-372h-1862z" />
    <glyph glyph-name="E" unicode="E" 
d="M372 0v2978h2606v-372h-1861v-745h1117v-372h-1117v-1117h1861v-372h-2606z" />
    <glyph glyph-name="F" unicode="F" 
d="M372 0v2978h2606v-372h-1861v-745h1117v-372h-1117v-1489h-745z" />
    <glyph glyph-name="G" unicode="G" 
d="M1117 0v372h-373v372h-372v1490h372v372h373v372h1489v-372h372v-372h-744v372h-745v-372h-372v-1490h372v-372h745v931h-745v372h1489v-1675h-1861z" />
    <glyph glyph-name="H" unicode="H" 
d="M372 0v2978h745v-1117h1117v1117h744v-2978h-744v1489h-1117v-1489h-745z" />
    <glyph glyph-name="I" unicode="I" horiz-adv-x="2792" 
d="M372 0v372h745v2234h-745v372h2234v-372h-745v-2234h745v-372h-2234z" />
    <glyph glyph-name="J" unicode="J" 
d="M744 0v372h-372v745h745v-745h1117v2234h-1117v372h1861v-2606h-372v-372h-1862z" />
    <glyph glyph-name="K" unicode="K" 
d="M372 0v2978h745v-1117h372v373h372v372h373v372h744v-372h-372v-372h-372v-373h-373v-372h373v-372h372v-373h372v-744h-744v744h-373v373h-372v372h-372v-1489h-745z" />
    <glyph glyph-name="L" unicode="L" horiz-adv-x="2792" 
d="M372 0v2978h745v-2606h1489v-372h-2234z" />
    <glyph glyph-name="M" unicode="M" 
d="M372 0v2978h372v-372h373v-372h372v-373h372v373h373v372h372v372h372v-2978h-744v1489h-373v-372h-372v372h-372v-1489h-745z" />
    <glyph glyph-name="N" unicode="N" 
d="M372 0v2978h372v-372h373v-372h372v-373h372v-372h373v1489h744v-2978h-372v372h-372v372h-373v373h-372v372h-372v-1489h-745z" />
    <glyph glyph-name="O" unicode="O" 
d="M2234 372v2234h-1117v-2234h1117zM744 0v372h-372v2234h372v372h1862v-372h372v-2234h-372v-372h-1862z" />
    <glyph glyph-name="P" unicode="P" 
d="M2234 1861v745h-1117v-745h1117zM372 0v2978h2234v-372h372v-745h-372v-372h-1489v-1489h-745z" />
    <glyph glyph-name="Q" unicode="Q" 
d="M2606 0v372h372v-372h-372zM1861 372v372h-372v373h745v1489h-1117v-2234h744zM744 0v372h-372v2234h372v372h1862v-372h372v-1862h-372v-372h-372v-372h-1490z" />
    <glyph glyph-name="R" unicode="R" 
d="M2234 1861v745h-1117v-745h1117zM372 0v2978h2234v-372h372v-745h-372v-372h372v-1489h-744v1489h-1117v-1489h-745z" />
    <glyph glyph-name="S" unicode="S" 
d="M744 0v372h-372v372h745v-372h1117v1117h-1490v372h-372v745h372v372h1862v-372h372v-372h-744v372h-1117v-745h1489v-372h372v-1117h-372v-372h-1862z" />
    <glyph glyph-name="T" unicode="T" 
d="M1303 0v2606h-931v372h2606v-372h-930v-2606h-745z" />
    <glyph glyph-name="U" unicode="U" 
d="M744 0v372h-372v2606h745v-2606h1117v2606h744v-2606h-372v-372h-1862z" />
    <glyph glyph-name="V" unicode="V" 
d="M1489 0v372h-372v372h-373v373h-372v1861h745v-1861h372v-373h372v373h373v1861h744v-1861h-372v-373h-372v-372h-373v-372h-372z" />
    <glyph glyph-name="W" unicode="W" horiz-adv-x="3537" 
d="M744 0v372h-372v2606h745v-1861h558v1861h373v-1861h558v1861h745v-2606h-373v-372h-372v372h-372v372h-745v-372h-372v-372h-373z" />
    <glyph glyph-name="X" unicode="X" 
d="M372 0v1117h372v372h373v372h-373v373h-372v744h745v-744h372v-373h372v373h373v744h744v-744h-372v-373h-372v-372h372v-372h372v-1117h-744v1117h-373v372h-372v-372h-372v-1117h-745z" />
    <glyph glyph-name="Y" unicode="Y" 
d="M1303 0v1117h-186v372h-373v372h-372v1117h745v-1117h372v-372h372v372h373v1117h744v-1117h-372v-372h-372v-372h-186v-1117h-745z" />
    <glyph glyph-name="Z" unicode="Z" 
d="M372 0v744h372v373h373v372h372v372h372v373h373v372h-1862v372h2606v-744h-372v-373h-372v-372h-373v-372h-372v-373h-372v-372h1861v-372h-2606z" />
    <glyph glyph-name="bracketleft" unicode="[" horiz-adv-x="2048" 
d="M372 0v2978h1489v-372h-744v-2234h744v-372h-1489z" />
    <glyph glyph-name="backslash" unicode="\" 
d="M2234 0v744h-373v373h-372v372h-372v372h-373v373h-372v744h745v-744h372v-373h372v-372h373v-372h372v-373h372v-744h-744z" />
    <glyph glyph-name="bracketright" unicode="]" horiz-adv-x="2048" 
d="M372 0v372h745v2234h-745v372h1489v-2978h-1489z" />
    <glyph glyph-name="asciicircum" unicode="^" 
d="M372 1861v373h372v372h373v372h1117v-372h372v-372h372v-373h-744v373h-373v372h-372v-372h-372v-373h-745z" />
    <glyph glyph-name="underscore" unicode="_" horiz-adv-x="2420" 
d="M372 0v372h1862v-372h-1862z" />
    <glyph glyph-name="grave" unicode="`" horiz-adv-x="2048" 
d="M1117 1861v373h-373v372h-372v372h745v-372h372v-372h372v-373h-744z" />
    <glyph glyph-name="a" unicode="a" 
d="M2234 372v372h-1117v-372h1117zM744 0v372h-372v372h372v373h1490v372h-1490v372h1862v-372h372v-1489h-2234z" />
    <glyph glyph-name="b" unicode="b" 
d="M2234 372v1117h-1117v-1117h1117zM372 0v2978h745v-1117h1489v-372h372v-1117h-372v-372h-2234z" />
    <glyph glyph-name="c" unicode="c" 
d="M744 0v372h-372v1117h372v372h1862v-372h372v-372h-744v372h-1117v-1117h1117v372h744v-372h-372v-372h-1862z" />
    <glyph glyph-name="d" unicode="d" 
d="M2234 372v1117h-1117v-1117h1117zM744 0v372h-372v1117h372v372h1490v1117h744v-2978h-2234z" />
    <glyph glyph-name="e" unicode="e" 
d="M2234 1117v372h-1117v-372h1117zM744 0v372h-372v1117h372v372h1862v-372h372v-745h-1861v-372h1489v-372h-1862z" />
    <glyph glyph-name="f" unicode="f" horiz-adv-x="2420" 
d="M744 0v1489h-372v372h372v745h373v372h1117v-372h-745v-745h745v-372h-745v-1489h-745z" />
    <glyph glyph-name="g" unicode="g" 
d="M2234 372v1117h-1117v-1117h1117zM744 -1117v373h1490v744h-1490v372h-372v1117h372v372h2234v-2605h-372v-373h-1862z" />
    <glyph glyph-name="h" unicode="h" 
d="M372 0v2978h745v-1117h1489v-372h372v-1489h-744v1489h-1117v-1489h-745z" />
    <glyph glyph-name="i" unicode="i" horiz-adv-x="1303" 
d="M372 0v1861h745v-1861h-745zM372 2234v744h745v-744h-745z" />
    <glyph glyph-name="j" unicode="j" horiz-adv-x="2420" 
d="M744 -372v372h-372v372h745v-372h372v1861h745v-1861h-373v-372h-1117zM1489 2234v744h745v-744h-745z" />
    <glyph glyph-name="k" unicode="k" horiz-adv-x="2792" 
d="M372 0v2978h745v-1861h372v372h372v372h745v-372h-372v-372h-373v-373h373v-372h372v-372h-745v372h-372v372h-372v-744h-745z" />
    <glyph glyph-name="l" unicode="l" horiz-adv-x="1675" 
d="M744 0v372h-372v2606h745v-2606h372v-372h-745z" />
    <glyph glyph-name="m" unicode="m" 
d="M372 0v1861h2234v-372h372v-1489h-744v1489h-373v-1489h-372v1489h-372v-1489h-745z" />
    <glyph glyph-name="n" unicode="n" 
d="M372 0v1861h2234v-372h372v-1489h-744v1489h-1117v-1489h-745z" />
    <glyph glyph-name="o" unicode="o" 
d="M2234 372v1117h-1117v-1117h1117zM744 0v372h-372v1117h372v372h1862v-372h372v-1117h-372v-372h-1862z" />
    <glyph glyph-name="p" unicode="p" 
d="M2234 372v1117h-1117v-1117h1117zM372 -1117v2978h2234v-372h372v-1117h-372v-372h-1489v-1117h-745z" />
    <glyph glyph-name="q" unicode="q" 
d="M2234 372v1117h-1117v-1117h1117zM2234 -1117v1117h-1490v372h-372v1117h372v372h2234v-2978h-744z" />
    <glyph glyph-name="r" unicode="r" horiz-adv-x="2792" 
d="M372 0v1861h745v-372h372v-372h-372v-1117h-745zM1489 1489v372h1117v-372h-1117z" />
    <glyph glyph-name="s" unicode="s" 
d="M372 0v372h1862v372h-1490v373h-372v372h372v372h1862v-372h-1489v-372h1489v-373h372v-372h-372v-372h-2234z" />
    <glyph glyph-name="t" unicode="t" horiz-adv-x="2420" 
d="M1117 0v372h-373v1117h-372v372h372v1117h745v-1117h745v-372h-745v-1117h745v-372h-1117z" />
    <glyph glyph-name="u" unicode="u" 
d="M744 0v372h-372v1489h745v-1489h1117v1489h744v-1489h-372v-372h-1862z" />
    <glyph glyph-name="v" unicode="v" 
d="M1117 0v372h-373v372h-372v1117h745v-1117h372v-372h372v372h373v1117h744v-1117h-372v-372h-372v-372h-1117z" />
    <glyph glyph-name="w" unicode="w" 
d="M744 0v372h-372v1489h745v-1489h372v-372h-745zM1489 372v1489h372v-1489h-372zM1861 0v372h373v1489h744v-1489h-372v-372h-745z" />
    <glyph glyph-name="x" unicode="x" 
d="M372 0v372h372v372h373v373h-373v372h-372v372h745v-372h372v-186h372v186h373v372h744v-372h-372v-372h-372v-373h372v-372h372v-372h-744v372h-373v186h-372v-186h-372v-372h-745z" />
    <glyph glyph-name="y" unicode="y" 
d="M744 -1117v373h1490v744h-1490v372h-372v1489h745v-1489h1117v1489h744v-2605h-372v-373h-1862z" />
    <glyph glyph-name="z" unicode="z" 
d="M372 0v372h372v372h373v373h372v372h-1117v372h2606v-372h-372v-372h-372v-373h-373v-372h1117v-372h-2606z" />
    <glyph glyph-name="braceleft" unicode="{" horiz-adv-x="2048" 
d="M1117 0v372h-373v931h-372v372h372v931h373v372h744v-372h-372v-931h-372v-372h372v-931h372v-372h-744z" />
    <glyph glyph-name="bar" unicode="|" horiz-adv-x="1303" 
d="M372 -744v3722h745v-3722h-745z" />
    <glyph glyph-name="braceright" unicode="}" horiz-adv-x="2048" 
d="M372 0v372h372v931h373v372h-373v931h-372v372h745v-372h372v-931h372v-372h-372v-931h-372v-372h-745z" />
    <glyph glyph-name="asciitilde" unicode="~" horiz-adv-x="2792" 
d="M372 1489v372h372v-372h-372zM2234 1489v372h372v-372h-372zM1489 1117v372h-372v372h-373v373h745v-373h372v-372h373v-372h-745z" />
    <glyph glyph-name="exclamdown" unicode="&#xa1;" horiz-adv-x="1303" 
d="M372 0v1861h745v-1861h-745zM372 2234v744h745v-744h-745z" />
    <glyph glyph-name="cent" unicode="&#xa2;" 
d="M1489 372v1117h-372v-1117h372zM1489 -372v372h-745v372h-372v1117h372v372h745v373h372v-373h745v-372h372v-372h-744v372h-373v-1117h373v372h744v-372h-372v-372h-745v-372h-372z" />
    <glyph glyph-name="sterling" unicode="&#xa3;" 
d="M372 0v372h372v1117h-372v372h372v745h373v372h1489v-372h372v-372h-744v372h-745v-745h1117v-372h-1117v-1117h1489v-372h-2606z" />
    <glyph glyph-name="currency" unicode="&#xa4;" horiz-adv-x="2978" 
d="M372 558v372h372v-372h-372zM1117 558v372h931v-372h-931zM2420 558v372h372v-372h-372zM744 930v1118h373v-1118h-373zM2048 930v1118h372v-1118h-372zM372 2048v372h372v-372h-372zM1117 2048v372h931v-372h-931zM2420 2048v372h372v-372h-372z" />
    <glyph glyph-name="yen" unicode="&#xa5;" 
d="M1303 0v372h-931v372h931v186h-931v373h745v186h-373v372h-372v1117h745v-1117h372v-372h372v372h373v1117h744v-1117h-372v-372h-372v-186h744v-373h-930v-186h930v-372h-930v-372h-745z" />
    <glyph glyph-name="brokenbar" unicode="&#xa6;" horiz-adv-x="1117" 
d="M372 -1117v2047h558v-2047h-558zM372 1675v2048h558v-2048h-558z" />
    <glyph glyph-name="section" unicode="&#xa7;" 
d="M744 0v372h-372v372h745v-372h1117v558h-1117v373h1117v372h372v-558h372v-745h-372v-372h-1862zM744 1303v372h-372v931h372v372h1862v-372h372v-372h-744v372h-1117v-558h1117v-373h-1117v-372h-373z" />
    <glyph glyph-name="dieresis" unicode="&#xa8;" horiz-adv-x="2420" 
d="M372 2234v744h745v-744h-745zM1489 2234v744h745v-744h-745z" />
    <glyph glyph-name="ordfeminine" unicode="&#xaa;" horiz-adv-x="2048" 
d="M372 1303v558h372v-558h-372zM744 930v373h745v558h-745v373h745v372h372v-1676h-1117zM744 2606v372h745v-372h-745z" />
    <glyph glyph-name="guillemotleft" unicode="&#xab;" horiz-adv-x="3909" 
d="M1489 0v372h-372v372h-373v373h-372v372h372v372h373v373h372v372h745v-372h-373v-373h-372v-372h-372v-372h372v-373h372v-372h373v-372h-745zM2978 0v372h-372v372h-372v373h-373v372h373v372h372v373h372v372h745v-372h-372v-373h-373v-372h-372v-372h372v-373h373
v-372h372v-372h-745z" />
    <glyph glyph-name="plusminus" unicode="&#xb1;" horiz-adv-x="2792" 
d="M372 186v372h2234v-372h-2234zM1117 930v745h-745v373h745v744h744v-744h745v-373h-745v-745h-744z" />
    <glyph glyph-name="mu" unicode="&#xb5;" 
d="M186 -1117v2978h744v-1117h373v-372h-373v-1489h-744zM1303 0v372h558v372h559v1117h558v-1861h-558v372h-372v-372h-745z" />
    <glyph glyph-name="paragraph" unicode="&#xb6;" 
d="M2606 186v2420h-372v-2420h372zM1861 0v1489h-1117v372h-372v745h372v372h2234v-2978h-1117z" />
    <glyph glyph-name="guillemotright" unicode="&#xbb;" horiz-adv-x="3909" 
d="M372 0v372h372v372h373v373h372v372h-372v372h-373v373h-372v372h745v-372h372v-373h372v-372h373v-372h-373v-373h-372v-372h-372v-372h-745zM1861 0v372h373v372h372v373h372v372h-372v372h-372v373h-373v372h745v-372h372v-373h373v-372h372v-372h-372v-373h-373v-372
h-372v-372h-745z" />
    <glyph glyph-name="questiondown" unicode="&#xbf;" 
d="M744 0v372h-372v745h372v372h745v372h745v-372h-373v-372h-744v-745h1117v372h744v-372h-372v-372h-1862zM1489 2234v744h745v-744h-745z" />
    <glyph glyph-name="Agrave" unicode="&#xc0;" 
d="M2234 1489v745h-373v372h-372v-372h-372v-745h1117zM372 0v2234h372v372h373v372h1117v-372h372v-372h372v-2234h-744v1117h-1117v-1117h-745zM1303 3351v372h-373v373h745v-373h373v-372h-745z" />
    <glyph glyph-name="Aacute" unicode="&#xc1;" 
d="M2234 1489v745h-373v372h-372v-372h-372v-745h1117zM372 0v2234h372v372h373v372h1117v-372h372v-372h372v-2234h-744v1117h-1117v-1117h-745zM1303 3351v372h372v373h745v-373h-372v-372h-745z" />
    <glyph glyph-name="Acircumflex" unicode="&#xc2;" 
d="M2234 1489v745h-373v372h-372v-372h-372v-745h1117zM372 0v2234h372v372h373v372h1117v-372h372v-372h372v-2234h-744v1117h-1117v-1117h-745zM744 3351v372h373v373h1117v-373h372v-372h-745v372h-372v-372h-745z" />
    <glyph glyph-name="Atilde" unicode="&#xc3;" 
d="M2234 1489v745h-373v372h-372v-372h-372v-745h1117zM372 0v2234h372v372h373v372h1117v-372h372v-372h372v-2234h-744v1117h-1117v-1117h-745zM930 3351v372h373v-372h-373zM1675 3351v372h373v-372h-373zM1303 3723v373h372v-373h-372zM2048 3723v373h372v-373h-372z
" />
    <glyph glyph-name="Adieresis" unicode="&#xc4;" 
d="M2234 1489v745h-373v372h-372v-372h-372v-745h1117zM372 0v2234h372v372h373v372h1117v-372h372v-372h372v-2234h-744v1117h-1117v-1117h-745zM744 3351v745h745v-745h-745zM1861 3351v745h745v-745h-745z" />
    <glyph glyph-name="Aring" unicode="&#xc5;" 
d="M2234 1489v745h-373v372h-372v-372h-372v-745h1117zM372 0v2234h372v372h373v372h372v373h372v-373h373v-372h372v-372h372v-2234h-744v1117h-1117v-1117h-745zM1117 3351v372h372v-372h-372zM1861 3351v372h373v-372h-373zM1489 3723v373h372v-373h-372z" />
    <glyph glyph-name="AE" unicode="&#xc6;" horiz-adv-x="4282" 
d="M1861 1489v1117h-372v-372h-372v-745h744zM372 0v2234h372v372h373v372h2979v-372h-1490v-745h1117v-372h-1117v-1117h1490v-372h-2235v1117h-744v-1117h-745z" />
    <glyph glyph-name="Ccedilla" unicode="&#xc7;" 
d="M1117 -744v372h744v372h-744v372h-373v372h-372v1490h372v372h373v372h1489v-372h372v-372h-744v372h-745v-372h-372v-1490h372v-372h745v372h744v-372h-372v-744h-372v-372h-1117z" />
    <glyph glyph-name="Egrave" unicode="&#xc8;" 
d="M372 0v2978h2606v-372h-1861v-745h1117v-372h-1117v-1117h1861v-372h-2606zM1303 3351v372h-373v373h745v-373h373v-372h-745z" />
    <glyph glyph-name="Eacute" unicode="&#xc9;" 
d="M372 0v2978h2606v-372h-1861v-745h1117v-372h-1117v-1117h1861v-372h-2606zM1303 3351v372h372v373h745v-373h-372v-372h-745z" />
    <glyph glyph-name="Ecircumflex" unicode="&#xca;" 
d="M372 0v2978h2606v-372h-1861v-745h1117v-372h-1117v-1117h1861v-372h-2606zM744 3351v372h373v373h1117v-373h372v-372h-745v372h-372v-372h-745z" />
    <glyph glyph-name="Edieresis" unicode="&#xcb;" 
d="M372 0v2978h2606v-372h-1861v-745h1117v-372h-1117v-1117h1861v-372h-2606zM744 3351v745h745v-745h-745zM1861 3351v745h745v-745h-745z" />
    <glyph glyph-name="Igrave" unicode="&#xcc;" horiz-adv-x="2792" 
d="M372 0v372h745v2234h-745v372h2234v-372h-745v-2234h745v-372h-2234zM1117 3351v372h-373v373h745v-373h372v-372h-744z" />
    <glyph glyph-name="Iacute" unicode="&#xcd;" horiz-adv-x="2792" 
d="M372 0v372h745v2234h-745v372h2234v-372h-745v-2234h745v-372h-2234zM1117 3351v372h372v373h745v-373h-373v-372h-744z" />
    <glyph glyph-name="Icircumflex" unicode="&#xce;" horiz-adv-x="2792" 
d="M372 0v372h745v2234h-745v372h2234v-372h-745v-2234h745v-372h-2234zM558 3351v372h372v373h1118v-373h372v-372h-745v372h-372v-372h-745z" />
    <glyph glyph-name="Idieresis" unicode="&#xcf;" horiz-adv-x="2792" 
d="M372 0v372h745v2234h-745v372h2234v-372h-745v-2234h745v-372h-2234zM558 3351v745h745v-745h-745zM1675 3351v745h745v-745h-745z" />
    <glyph glyph-name="Eth" unicode="&#xd0;" horiz-adv-x="3537" 
d="M2420 372v372h186v1490h-372v372h-745v-931h745v-372h-745v-931h931zM744 0v1303h-372v372h372v1303h1862v-372h372v-372h373v-1490h-373v-372h-372v-372h-1862z" />
    <glyph glyph-name="Ntilde" unicode="&#xd1;" 
d="M372 0v2978h372v-372h373v-372h372v-373h372v-372h373v1489h744v-2978h-372v372h-372v372h-373v373h-372v372h-372v-1489h-745zM930 3351v372h373v-372h-373zM1675 3351v372h373v-372h-373zM1303 3723v373h372v-373h-372zM2048 3723v373h372v-373h-372z" />
    <glyph glyph-name="Ograve" unicode="&#xd2;" 
d="M2234 372v2234h-1117v-2234h1117zM744 0v372h-372v2234h372v372h1862v-372h372v-2234h-372v-372h-1862zM1303 3351v372h-373v373h745v-373h373v-372h-745z" />
    <glyph glyph-name="Oacute" unicode="&#xd3;" 
d="M2234 372v2234h-1117v-2234h1117zM744 0v372h-372v2234h372v372h1862v-372h372v-2234h-372v-372h-1862zM1303 3351v372h372v373h745v-373h-372v-372h-745z" />
    <glyph glyph-name="Ocircumflex" unicode="&#xd4;" 
d="M2234 372v2234h-1117v-2234h1117zM744 0v372h-372v2234h372v372h1862v-372h372v-2234h-372v-372h-1862zM744 3351v372h373v373h1117v-373h372v-372h-745v372h-372v-372h-745z" />
    <glyph glyph-name="Otilde" unicode="&#xd5;" 
d="M2234 372v2234h-1117v-2234h1117zM744 0v372h-372v2234h372v372h1862v-372h372v-2234h-372v-372h-1862zM930 3351v372h373v-372h-373zM1675 3351v372h373v-372h-373zM1303 3723v373h372v-373h-372zM2048 3723v373h372v-373h-372z" />
    <glyph glyph-name="Odieresis" unicode="&#xd6;" 
d="M2234 372v2234h-1117v-2234h1117zM744 0v372h-372v2234h372v372h1862v-372h372v-2234h-372v-372h-1862zM744 3351v745h745v-745h-745zM1861 3351v745h745v-745h-745z" />
    <glyph glyph-name="multiply" unicode="&#xd7;" horiz-adv-x="2420" 
d="M372 744v373h372v-373h-372zM1861 744v373h373v-373h-373zM744 1117v372h373v-372h-373zM1489 1117v372h372v-372h-372zM1117 1489v372h372v-372h-372zM744 1861v373h373v-373h-373zM1489 1861v373h372v-373h-372zM372 2234v372h372v-372h-372zM1861 2234v372h373v-372
h-373z" />
    <glyph glyph-name="Oslash" unicode="&#xd8;" 
d="M372 0v372h372v-372h-372zM1117 0v372h1117v-372h-1117zM1489 1117v744h372v-744h-372zM2234 372v1489h-373v373h373v372h372v-186h372v-2048h-744zM744 372v372h-372v1862h372v372h1490v-372h-1117v-1489h372v-373h-372v-372h-373zM2606 2606v372h372v-372h-372z" />
    <glyph glyph-name="Ugrave" unicode="&#xd9;" 
d="M744 0v372h-372v2606h745v-2606h1117v2606h744v-2606h-372v-372h-1862zM1303 3351v372h-373v373h745v-373h373v-372h-745z" />
    <glyph glyph-name="Uacute" unicode="&#xda;" 
d="M744 0v372h-372v2606h745v-2606h1117v2606h744v-2606h-372v-372h-1862zM1303 3351v372h372v373h745v-373h-372v-372h-745z" />
    <glyph glyph-name="Ucircumflex" unicode="&#xdb;" 
d="M744 0v372h-372v2606h745v-2606h1117v2606h744v-2606h-372v-372h-1862zM744 3351v372h373v373h1117v-373h372v-372h-745v372h-372v-372h-745z" />
    <glyph glyph-name="Udieresis" unicode="&#xdc;" 
d="M744 0v372h-372v2606h745v-2606h1117v2606h744v-2606h-372v-372h-1862zM744 3351v745h745v-745h-745zM1861 3351v745h745v-745h-745z" />
    <glyph glyph-name="Yacute" unicode="&#xdd;" 
d="M1303 0v1117h-186v372h-373v372h-372v1117h745v-1117h372v-372h372v372h373v1117h744v-1117h-372v-372h-372v-372h-186v-1117h-745zM1303 3351v372h372v373h745v-373h-372v-372h-745z" />
    <glyph glyph-name="Thorn" unicode="&#xde;" 
d="M2234 744v1490h-1117v-1490h1117zM372 0v2978h745v-372h1489v-372h372v-1490h-372v-372h-1489v-372h-745z" />
    <glyph glyph-name="germandbls" unicode="&#xdf;" 
d="M372 0v2978h1862v-372h372v-745h-372v-744h372v-373h372v-372h-372v-372h-1117v372h-186v372h558v-372h373v372h-373v373h-372v744h372v745h-744v-2606h-745z" />
    <glyph glyph-name="agrave" unicode="&#xe0;" 
d="M2234 372v372h-1117v-372h1117zM744 0v372h-372v372h372v373h1490v372h-1490v372h1862v-372h372v-1489h-2234zM1303 2234v372h-373v372h745v-372h373v-372h-745z" />
    <glyph glyph-name="aacute" unicode="&#xe1;" 
d="M2234 372v372h-1117v-372h1117zM744 0v372h-372v372h372v373h1490v372h-1490v372h1862v-372h372v-1489h-2234zM1303 2234v372h372v372h745v-372h-372v-372h-745z" />
    <glyph glyph-name="acircumflex" unicode="&#xe2;" 
d="M2234 372v372h-1117v-372h1117zM744 0v372h-372v372h372v373h1490v372h-1490v372h1862v-372h372v-1489h-2234zM744 2234v372h373v372h1117v-372h372v-372h-745v372h-372v-372h-745z" />
    <glyph glyph-name="atilde" unicode="&#xe3;" 
d="M2234 372v372h-1117v-372h1117zM744 0v372h-372v372h372v373h1490v372h-1490v372h1862v-372h372v-1489h-2234zM930 2234v372h373v-372h-373zM1675 2234v372h373v-372h-373zM1303 2606v372h372v-372h-372zM2048 2606v372h372v-372h-372z" />
    <glyph glyph-name="adieresis" unicode="&#xe4;" 
d="M2234 372v372h-1117v-372h1117zM744 0v372h-372v372h372v373h1490v372h-1490v372h1862v-372h372v-1489h-2234zM744 2234v744h745v-744h-745zM1861 2234v744h745v-744h-745z" />
    <glyph glyph-name="aring" unicode="&#xe5;" 
d="M2234 372v372h-1117v-372h1117zM744 0v372h-372v372h372v373h1490v372h-1490v372h745v373h372v-373h745v-372h372v-1489h-2234zM1117 2234v372h372v-372h-372zM1861 2234v372h373v-372h-373zM1489 2606v372h372v-372h-372z" />
    <glyph glyph-name="ae" unicode="&#xe6;" horiz-adv-x="5399" 
d="M2234 372v372h-1117v-372h1117zM4468 1117v372h-1117v-372h1117zM744 0v372h-372v372h372v373h1490v372h-1490v372h1862v-372h372v372h1862v-372h373v-745h-1862v-372h1489v-372h-1862v372h-372v-372h-1862z" />
    <glyph glyph-name="ccedilla" unicode="&#xe7;" 
d="M1117 -744v372h744v372h-1117v372h-372v1117h372v372h1862v-372h372v-372h-744v372h-1117v-1117h1117v372h744v-372h-372v-744h-372v-372h-1117z" />
    <glyph glyph-name="egrave" unicode="&#xe8;" 
d="M2234 1117v372h-1117v-372h1117zM744 0v372h-372v1117h372v372h1862v-372h372v-745h-1861v-372h1489v-372h-1862zM1303 2234v372h-373v372h745v-372h373v-372h-745z" />
    <glyph glyph-name="eacute" unicode="&#xe9;" 
d="M2234 1117v372h-1117v-372h1117zM744 0v372h-372v1117h372v372h1862v-372h372v-745h-1861v-372h1489v-372h-1862zM1303 2234v372h372v372h745v-372h-372v-372h-745z" />
    <glyph glyph-name="ecircumflex" unicode="&#xea;" 
d="M2234 1117v372h-1117v-372h1117zM744 0v372h-372v1117h372v372h1862v-372h372v-745h-1861v-372h1489v-372h-1862zM744 2234v372h373v372h1117v-372h372v-372h-745v372h-372v-372h-745z" />
    <glyph glyph-name="edieresis" unicode="&#xeb;" 
d="M2234 1117v372h-1117v-372h1117zM744 0v372h-372v1117h372v372h1862v-372h372v-745h-1861v-372h1489v-372h-1862zM744 2234v744h745v-744h-745zM1861 2234v744h745v-744h-745z" />
    <glyph glyph-name="igrave" unicode="&#xec;" horiz-adv-x="1303" 
d="M372 0v1861h745v-1861h-745zM372 2234v372h-372v372h744v-372h373v-372h-745z" />
    <glyph glyph-name="iacute" unicode="&#xed;" horiz-adv-x="1675" 
d="M372 0v1861h745v-1861h-745zM372 2234v372h372v372h745v-372h-372v-372h-745z" />
    <glyph glyph-name="icircumflex" unicode="&#xee;" horiz-adv-x="1861" 
d="M372 0v1861h745v-1861h-745zM-186 2234v372h372v372h1117v-372h372v-372h-745v372h-372v-372h-744z" />
    <glyph glyph-name="idieresis" unicode="&#xef;" horiz-adv-x="1861" 
d="M372 0v1861h745v-1861h-745zM-186 2234v744h744v-744h-744zM930 2234v744h745v-744h-745z" />
    <glyph glyph-name="eth" unicode="&#xf0;" horiz-adv-x="3537" 
d="M2234 372v1117h-1117v-1117h1117zM744 0v372h-372v1117h372v372h1490v373h-745v372h745v372h744v-372h373v-372h-373v-1862h-372v-372h-1862z" />
    <glyph glyph-name="ntilde" unicode="&#xf1;" 
d="M372 0v1861h2234v-372h372v-1489h-744v1489h-1117v-1489h-745zM930 2234v372h373v-372h-373zM1675 2234v372h373v-372h-373zM1303 2606v372h372v-372h-372zM2048 2606v372h372v-372h-372z" />
    <glyph glyph-name="ograve" unicode="&#xf2;" 
d="M2234 372v1117h-1117v-1117h1117zM744 0v372h-372v1117h372v372h1862v-372h372v-1117h-372v-372h-1862zM1303 2234v372h-373v372h745v-372h373v-372h-745z" />
    <glyph glyph-name="oacute" unicode="&#xf3;" 
d="M2234 372v1117h-1117v-1117h1117zM744 0v372h-372v1117h372v372h1862v-372h372v-1117h-372v-372h-1862zM1303 2234v372h372v372h745v-372h-372v-372h-745z" />
    <glyph glyph-name="ocircumflex" unicode="&#xf4;" 
d="M2234 372v1117h-1117v-1117h1117zM744 0v372h-372v1117h372v372h1862v-372h372v-1117h-372v-372h-1862zM744 2234v372h373v372h1117v-372h372v-372h-745v372h-372v-372h-745z" />
    <glyph glyph-name="otilde" unicode="&#xf5;" 
d="M2234 372v1117h-1117v-1117h1117zM744 0v372h-372v1117h372v372h1862v-372h372v-1117h-372v-372h-1862zM930 2234v372h373v-372h-373zM1675 2234v372h373v-372h-373zM1303 2606v372h372v-372h-372zM2048 2606v372h372v-372h-372z" />
    <glyph glyph-name="odieresis" unicode="&#xf6;" 
d="M2234 372v1117h-1117v-1117h1117zM744 0v372h-372v1117h372v372h1862v-372h372v-1117h-372v-372h-1862zM744 2234v744h745v-744h-745zM1861 2234v744h745v-744h-745z" />
    <glyph glyph-name="divide" unicode="&#xf7;" horiz-adv-x="2792" 
d="M1117 372v372h744v-372h-744zM372 1117v372h2234v-372h-2234zM1117 1861v373h744v-373h-744z" />
    <glyph glyph-name="oslash" unicode="&#xf8;" 
d="M2234 372v745h-186v-187h-187v-186h-186v-186h-186v-186h745zM1303 744v186h186v187h186v186h186v186h-744v-745h186zM372 0v372h186v186h186v186h-372v745h372v372h1490v-186h186v186h558v-372h-186v-186h-186v-186h372v-745h-372v-372h-1489v186h-373v-186h-372z" />
    <glyph glyph-name="ugrave" unicode="&#xf9;" 
d="M744 0v372h-372v1489h745v-1489h1117v1489h744v-1861h-2234zM1303 2234v372h-373v372h745v-372h373v-372h-745z" />
    <glyph glyph-name="uacute" unicode="&#xfa;" 
d="M744 0v372h-372v1489h745v-1489h1117v1489h744v-1861h-2234zM1303 2234v372h372v372h745v-372h-372v-372h-745z" />
    <glyph glyph-name="ucircumflex" unicode="&#xfb;" 
d="M744 0v372h-372v1489h745v-1489h1117v1489h744v-1861h-2234zM744 2234v372h373v372h1117v-372h372v-372h-745v372h-372v-372h-745z" />
    <glyph glyph-name="udieresis" unicode="&#xfc;" 
d="M744 0v372h-372v1489h745v-1489h1117v1489h744v-1861h-2234zM744 2234v744h745v-744h-745zM1861 2234v744h745v-744h-745z" />
    <glyph glyph-name="yacute" unicode="&#xfd;" 
d="M744 -1117v373h1490v744h-1490v372h-372v1489h745v-1489h1117v1489h744v-2605h-372v-373h-1862zM1303 2234v372h372v372h745v-372h-372v-372h-745z" />
    <glyph glyph-name="thorn" unicode="&#xfe;" 
d="M2234 372v1117h-1117v-1117h1117zM372 -1117v4095h745v-1117h1489v-372h372v-1117h-372v-372h-1489v-1117h-745z" />
    <glyph glyph-name="ydieresis" unicode="&#xff;" 
d="M744 -1117v373h1490v744h-1490v372h-372v1489h745v-1489h1117v1489h744v-2605h-372v-373h-1862zM744 2234v744h745v-744h-745zM1861 2234v744h745v-744h-745z" />
    <glyph glyph-name="Ydieresis" unicode="&#x178;" 
d="M1303 0v1117h-186v372h-373v372h-372v1117h745v-1117h372v-372h372v372h373v1117h744v-1117h-372v-372h-372v-372h-186v-1117h-745zM744 3351v745h745v-745h-745zM1861 3351v745h745v-745h-745z" />
    <glyph glyph-name="Alpha" unicode="&#x391;" 
d="M2234 1489v745h-373v372h-372v-372h-372v-745h1117zM372 0v2234h372v372h373v372h1117v-372h372v-372h372v-2234h-744v1117h-1117v-1117h-745z" />
    <glyph glyph-name="Beta" unicode="&#x392;" 
d="M2234 372v1117h-1117v-1117h1117zM2234 1861v745h-1117v-745h1117zM372 0v2978h2234v-372h372v-745h-372v-372h372v-1117h-372v-372h-2234z" />
    <glyph glyph-name="Gamma" unicode="&#x393;" horiz-adv-x="2792" 
d="M372 0v2978h2234v-372h-1489v-2606h-745z" />
    <glyph glyph-name="uni0394" unicode="&#x394;" horiz-adv-x="4282" 
d="M2978 558v745h-372v745h-186v372h-372v-372h-187v-745h-372v-745h1489zM372 0v558h372v745h373v745h372v558h372v372h745v-372h372v-558h373v-745h372v-745h373v-558h-3724z" />
    <glyph glyph-name="Epsilon" unicode="&#x395;" 
d="M372 0v2978h2606v-372h-1861v-745h1117v-372h-1117v-1117h1861v-372h-2606z" />
    <glyph glyph-name="Zeta" unicode="&#x396;" 
d="M372 0v744h372v373h373v372h372v372h372v373h373v372h-1862v372h2606v-744h-372v-373h-372v-372h-373v-372h-372v-373h-372v-372h1861v-372h-2606z" />
    <glyph glyph-name="Eta" unicode="&#x397;" 
d="M372 0v2978h745v-1117h1117v1117h744v-2978h-744v1489h-1117v-1489h-745z" />
    <glyph glyph-name="Theta" unicode="&#x398;" 
d="M1303 1303v372h745v-372h-745zM2234 372v2234h-1117v-2234h1117zM744 0v372h-372v2234h372v372h1862v-372h372v-2234h-372v-372h-1862z" />
    <glyph glyph-name="Iota" unicode="&#x399;" horiz-adv-x="2792" 
d="M372 0v372h745v2234h-745v372h2234v-372h-745v-2234h745v-372h-2234z" />
    <glyph glyph-name="Kappa" unicode="&#x39a;" 
d="M372 0v2978h745v-1117h372v373h372v372h373v372h744v-372h-372v-372h-372v-373h-373v-372h373v-372h372v-373h372v-744h-744v744h-373v373h-372v372h-372v-1489h-745z" />
    <glyph glyph-name="Lambda" unicode="&#x39b;" horiz-adv-x="4282" 
d="M372 0v558h372v745h373v745h372v558h372v372h745v-372h372v-558h373v-745h372v-745h373v-558h-745v558h-373v745h-372v745h-186v372h-372v-372h-187v-745h-372v-745h-372v-558h-745z" />
    <glyph glyph-name="Mu" unicode="&#x39c;" 
d="M372 0v2978h372v-372h373v-372h372v-373h372v373h373v372h372v372h372v-2978h-744v1489h-373v-372h-372v372h-372v-1489h-745z" />
    <glyph glyph-name="Nu" unicode="&#x39d;" 
d="M372 0v2978h372v-372h373v-372h372v-373h372v-372h373v1489h744v-2978h-372v372h-372v372h-373v373h-372v372h-372v-1489h-745z" />
    <glyph glyph-name="Xi" unicode="&#x39e;" 
d="M372 0v372h2606v-372h-2606zM930 1303v372h1490v-372h-1490zM372 2606v372h2606v-372h-2606z" />
    <glyph glyph-name="Omicron" unicode="&#x39f;" 
d="M2234 372v2234h-1117v-2234h1117zM744 0v372h-372v2234h372v372h1862v-372h372v-2234h-372v-372h-1862z" />
    <glyph glyph-name="Pi" unicode="&#x3a0;" horiz-adv-x="3909" 
d="M744 0v2606h-372v372h3351v-372h-372v-2606h-745v2606h-1117v-2606h-745z" />
    <glyph glyph-name="Rho" unicode="&#x3a1;" 
d="M2234 1861v745h-1117v-745h1117zM372 0v2978h2234v-372h372v-745h-372v-372h-1489v-1489h-745z" />
    <glyph glyph-name="Sigma" unicode="&#x3a3;" 
d="M372 0v930h372v373h373v372h-373v373h-372v930h2606v-372h-1861v-558h372v-373h372v-372h-372v-373h-372v-558h1861v-372h-2606z" />
    <glyph glyph-name="Tau" unicode="&#x3a4;" 
d="M1117 0v2606h-745v372h2606v-372h-930v-2606h-931z" />
    <glyph glyph-name="Upsilon" unicode="&#x3a5;" horiz-adv-x="3909" 
d="M1675 0v1117h-186v372h-372v372h-373v745h-372v372h745v-372h372v-745h372v-372h373v372h372v745h372v372h745v-372h-372v-745h-373v-372h-372v-372h-186v-1117h-745z" />
    <glyph glyph-name="Phi" unicode="&#x3a6;" horiz-adv-x="3909" 
d="M1675 744v1490h-558v-1490h558zM2978 744v1490h-558v-1490h558zM1675 0v372h-931v372h-372v1490h372v372h931v372h745v-372h931v-372h372v-1490h-372v-372h-931v-372h-745z" />
    <glyph glyph-name="Chi" unicode="&#x3a7;" 
d="M372 0v1117h372v372h373v372h-373v373h-372v744h745v-744h372v-373h372v373h373v744h744v-744h-372v-373h-372v-372h372v-372h372v-1117h-744v1117h-373v372h-372v-372h-372v-1117h-745z" />
    <glyph glyph-name="Psi" unicode="&#x3a8;" horiz-adv-x="4654" 
d="M2048 0v1117h-187v372h-372v372h-372v373h-373v372h-372v372h745v-372h372v-372h372v-373h187v1117h744v-1117h186v373h373v372h372v372h745v-372h-372v-372h-373v-373h-372v-372h-373v-372h-186v-1117h-744z" />
    <glyph glyph-name="uni03A9" unicode="&#x3a9;" horiz-adv-x="4654" 
d="M372 0v372h1117v372h-372v373h-373v372h-372v745h372v372h373v372h2606v-372h373v-372h372v-745h-372v-372h-373v-373h-372v-372h1117v-372h-1862v744h372v373h373v372h372v745h-372v372h-1862v-372h-372v-745h372v-372h372v-373h373v-744h-1862z" />
    <glyph glyph-name="alpha" unicode="&#x3b1;" 
d="M1489 372v372h372v373h-372v372h-372v-1117h372zM744 0v372h-372v1117h372v372h1117v-372h373v372h744v-372h-372v-1117h372v-372h-744v372h-373v-372h-1117z" />
    <glyph glyph-name="beta" unicode="&#x3b2;" 
d="M372 -1117v3351h372v372h373v372h1489v-372h372v-931h-372v-372h372v-559h-372v-372h-372v-372h-745v372h372v372h373v559h-745v372h745v931h-745v-372h-372v-1490h372v-372h-372v-1489h-745z" />
    <glyph glyph-name="uni0401" unicode="&#x401;" 
d="M372 0v2978h2606v-372h-1861v-745h1117v-372h-1117v-1117h1861v-372h-2606zM744 3351v745h745v-745h-745zM1861 3351v745h745v-745h-745z" />
    <glyph glyph-name="uni0404" unicode="&#x404;" 
d="M1117 0v372h-373v372h-372v1490h372v372h373v372h1489v-372h372v-372h-744v372h-745v-372h-372v-559h1117v-372h-1117v-559h372v-372h745v372h744v-372h-372v-372h-1489z" />
    <glyph glyph-name="uni0406" unicode="&#x406;" horiz-adv-x="2792" 
d="M372 0v372h745v2234h-745v372h2234v-372h-745v-2234h745v-372h-2234z" />
    <glyph glyph-name="uni0407" unicode="&#x407;" horiz-adv-x="2978" 
d="M372 0v372h745v2234h-745v372h2234v-372h-558v-2234h744v-372h-2420zM558 3351v745h745v-745h-745zM1675 3351v745h745v-745h-745z" />
    <glyph glyph-name="uni0409" unicode="&#x409;" horiz-adv-x="4840" 
d="M3909 372v1117h-931v-1117h931zM372 0v372h372v2234h373v372h1861v-1117h1304v-372h372v-1117h-372v-372h-2048v2606h-745v-2234h-372v-372h-745z" />
    <glyph glyph-name="uni040A" unicode="&#x40a;" horiz-adv-x="4654" 
d="M3723 372v1117h-745v-1117h745zM372 0v2978h745v-1117h1117v1117h744v-1117h1118v-372h372v-1117h-372v-372h-1862v1489h-1117v-1489h-745z" />
    <glyph glyph-name="uni0410" unicode="&#x410;" 
d="M2234 1675v559h-373v372h-372v-372h-372v-559h1117zM372 0v2234h372v372h373v372h1117v-372h372v-372h372v-2234h-744v1303h-1117v-1303h-745z" />
    <glyph glyph-name="uni0411" unicode="&#x411;" 
d="M2234 372v1117h-1117v-1117h1117zM372 0v2978h2234v-372h-1489v-745h1489v-372h372v-1117h-372v-372h-2234z" />
    <glyph glyph-name="uni0412" unicode="&#x412;" 
d="M2234 372v1117h-1117v-1117h1117zM2234 1861v745h-1117v-745h1117zM372 0v2978h2234v-372h372v-745h-372v-372h372v-1117h-372v-372h-2234z" />
    <glyph glyph-name="uni0413" unicode="&#x413;" horiz-adv-x="2792" 
d="M372 0v2978h2234v-372h-1489v-2606h-745z" />
    <glyph glyph-name="uni0414" unicode="&#x414;" horiz-adv-x="3537" 
d="M2234 372v2234h-745v-2234h745zM372 -558v930h372v2234h373v372h1861v-2606h373v-930h-745v558h-1489v-558h-745z" />
    <glyph glyph-name="uni0415" unicode="&#x415;" 
d="M372 0v2978h2606v-372h-1861v-745h1117v-372h-1117v-1117h1861v-372h-2606z" />
    <glyph glyph-name="uni0416" unicode="&#x416;" horiz-adv-x="3537" 
d="M372 0v1489h372v372h-372v1117h745v-1117h372v1117h745v-1117h372v1117h745v-1117h-373v-372h373v-1489h-745v1489h-372v-1489h-745v1489h-372v-1489h-745z" />
    <glyph glyph-name="uni0417" unicode="&#x417;" 
d="M744 0v372h-372v372h745v-372h1117v931h-931v372h931v931h-1117v-372h-745v372h372v372h1862v-372h372v-931h-372v-372h372v-931h-372v-372h-1862z" />
    <glyph glyph-name="uni0418" unicode="&#x418;" 
d="M372 0v2978h745v-1489h372v372h372v373h373v372h372v372h372v-2978h-744v1489h-373v-372h-372v-373h-372v-372h-373v-372h-372z" />
    <glyph glyph-name="uni0419" unicode="&#x419;" 
d="M372 0v2978h745v-1489h372v372h372v373h373v372h372v372h372v-2978h-744v1489h-373v-372h-372v-373h-372v-372h-373v-372h-372zM930 3351v372h-372v373h745v-373h745v373h744v-373h-372v-372h-1490z" />
    <glyph glyph-name="uni041A" unicode="&#x41a;" 
d="M372 0v2978h745v-1117h372v373h372v372h373v372h744v-372h-372v-372h-372v-373h-373v-372h373v-372h372v-373h372v-744h-744v744h-373v373h-372v372h-372v-1489h-745z" />
    <glyph glyph-name="uni041B" unicode="&#x41b;" 
d="M372 0v372h372v2234h373v372h1861v-2978h-744v2606h-745v-2234h-372v-372h-745z" />
    <glyph glyph-name="uni041C" unicode="&#x41c;" 
d="M372 0v2978h372v-372h373v-372h372v-373h372v373h373v372h372v372h372v-2978h-744v1489h-373v-372h-372v372h-372v-1489h-745z" />
    <glyph glyph-name="uni041D" unicode="&#x41d;" 
d="M372 0v2978h745v-1117h1117v1117h744v-2978h-744v1489h-1117v-1489h-745z" />
    <glyph glyph-name="uni041E" unicode="&#x41e;" 
d="M2234 372v2234h-1117v-2234h1117zM744 0v372h-372v2234h372v372h1862v-372h372v-2234h-372v-372h-1862z" />
    <glyph glyph-name="uni041F" unicode="&#x41f;" 
d="M372 0v2978h2606v-2978h-744v2606h-1117v-2606h-745z" />
    <glyph glyph-name="uni0420" unicode="&#x420;" 
d="M2234 1861v745h-1117v-745h1117zM372 0v2978h2234v-372h372v-745h-372v-372h-1489v-1489h-745z" />
    <glyph glyph-name="uni0421" unicode="&#x421;" 
d="M1117 0v372h-373v372h-372v1490h372v372h373v372h1489v-372h372v-372h-744v372h-745v-372h-372v-1490h372v-372h745v372h744v-372h-372v-372h-1489z" />
    <glyph glyph-name="uni0422" unicode="&#x422;" 
d="M1303 0v2606h-931v372h2606v-372h-930v-2606h-745z" />
    <glyph glyph-name="uni0423" unicode="&#x423;" 
d="M744 0v372h-372v372h745v-372h1117v931h-1490v372h-372v1303h745v-1303h1117v1303h744v-2606h-372v-372h-1862z" />
    <glyph glyph-name="uni0424" unicode="&#x424;" horiz-adv-x="4282" 
d="M1861 744v1490h-744v-1490h744zM3351 744v1490h-745v-1490h745zM1861 0v372h-1117v372h-372v1490h372v372h1117v372h745v-372h1117v-372h373v-1490h-373v-372h-1117v-372h-745z" />
    <glyph glyph-name="uni0425" unicode="&#x425;" 
d="M372 0v1117h372v372h373v372h-373v373h-372v744h745v-744h372v-373h372v373h373v744h744v-744h-372v-373h-372v-372h372v-372h372v-1117h-744v1117h-373v372h-372v-372h-372v-1117h-745z" />
    <glyph glyph-name="uni0426" unicode="&#x426;" horiz-adv-x="3537" 
d="M2606 -558v558h-2234v2978h745v-2606h1117v2606h744v-2606h373v-930h-745z" />
    <glyph glyph-name="uni0427" unicode="&#x427;" 
d="M2234 0v1303h-1490v372h-372v1303h745v-1303h1117v1303h744v-2978h-744z" />
    <glyph glyph-name="uni0428" unicode="&#x428;" horiz-adv-x="3909" 
d="M372 0v2978h745v-2606h558v2606h745v-2606h558v2606h745v-2978h-3351z" />
    <glyph glyph-name="uni0429" unicode="&#x429;" horiz-adv-x="4282" 
d="M3351 -558v558h-2979v2978h745v-2606h558v2606h745v-2606h558v2606h745v-2606h373v-930h-745z" />
    <glyph glyph-name="uni042A" unicode="&#x42a;" horiz-adv-x="3723" 
d="M2792 372v1117h-1117v-1117h1117zM930 0v2606h-558v372h1303v-1117h1490v-372h372v-1117h-372v-372h-2235z" />
    <glyph glyph-name="uni042B" unicode="&#x42b;" horiz-adv-x="4282" 
d="M2234 372v1117h-1117v-1117h1117zM372 0v2978h745v-1117h1489v-372h372v-1117h-372v-372h-2234zM3351 0v2978h745v-2978h-745z" />
    <glyph glyph-name="uni042C" unicode="&#x42c;" 
d="M2234 372v1117h-1117v-1117h1117zM372 0v2978h745v-1117h1489v-372h372v-1117h-372v-372h-2234z" />
    <glyph glyph-name="uni042D" unicode="&#x42d;" 
d="M744 0v372h-372v372h745v-372h744v372h373v559h-1117v372h1117v559h-373v372h-744v-372h-745v372h372v372h1490v-372h372v-372h372v-1490h-372v-372h-372v-372h-1490z" />
    <glyph glyph-name="uni042E" unicode="&#x42e;" horiz-adv-x="4468" 
d="M3537 372v2234h-1117v-2234h1117zM372 0v2978h931v-1303h372v931h373v372h1861v-372h373v-2234h-373v-372h-1861v372h-373v931h-372v-1303h-931z" />
    <glyph glyph-name="uni042F" unicode="&#x42f;" 
d="M2234 1861v745h-1117v-745h1117zM372 0v1489h372v372h-372v745h372v372h2234v-2978h-744v1489h-1117v-1489h-745z" />
    <glyph glyph-name="uni0430" unicode="&#x430;" 
d="M2234 372v372h-1117v-372h1117zM744 0v372h-372v372h372v373h1490v372h-1490v372h1862v-372h372v-1489h-2234z" />
    <glyph glyph-name="uni0431" unicode="&#x431;" 
d="M2234 372v1117h-373v-372h-744v-745h1117zM744 0v372h-372v2234h372v372h1862v-372h-1489v-1117h372v372h1117v-372h372v-1117h-372v-372h-1862z" />
    <glyph glyph-name="uni0432" unicode="&#x432;" 
d="M2234 372v372h-1117v-372h1117zM2234 1117v372h-1117v-372h1117zM372 0v1861h2234v-372h372v-372h-372v-373h372v-372h-372v-372h-2234z" />
    <glyph glyph-name="uni0433" unicode="&#x433;" horiz-adv-x="2420" 
d="M372 0v1861h1862v-372h-1117v-1489h-745z" />
    <glyph glyph-name="uni0434" unicode="&#x434;" horiz-adv-x="3537" 
d="M2234 372v1117h-745v-1117h745zM372 -558v930h372v1117h373v372h1861v-1489h373v-930h-745v558h-1489v-558h-745z" />
    <glyph glyph-name="uni0435" unicode="&#x435;" 
d="M2234 1117v372h-1117v-372h1117zM744 0v372h-372v1117h372v372h1862v-372h372v-745h-1861v-372h1489v-372h-1862z" />
    <glyph glyph-name="uni0436" unicode="&#x436;" horiz-adv-x="3537" 
d="M372 0v744h372v373h-372v744h745v-744h372v744h745v-744h372v744h745v-744h-373v-373h373v-744h-745v744h-372v-744h-745v744h-372v-744h-745z" />
    <glyph glyph-name="uni0437" unicode="&#x437;" 
d="M744 0v372h-372v372h745v-372h1117v372h-745v373h745v372h-1117v-372h-745v372h372v372h1862v-372h372v-372h-372v-373h372v-372h-372v-372h-1862z" />
    <glyph glyph-name="uni0438" unicode="&#x438;" 
d="M372 0v1861h745v-931h372v373h372v372h373v186h744v-1861h-744v930h-373v-372h-372v-372h-372v-186h-745z" />
    <glyph glyph-name="uni0439" unicode="&#x439;" 
d="M372 0v1861h745v-931h372v373h372v372h373v186h744v-1861h-744v930h-373v-372h-372v-372h-372v-186h-745zM930 2234v372h-372v372h745v-372h745v372h744v-372h-372v-372h-1490z" />
    <glyph glyph-name="uni043A" unicode="&#x43a;" horiz-adv-x="2792" 
d="M372 0v1861h745v-744h372v372h372v372h745v-372h-372v-372h-373v-373h373v-372h372v-372h-745v372h-372v372h-372v-744h-745z" />
    <glyph glyph-name="uni043B" unicode="&#x43b;" 
d="M372 0v372h372v1117h373v372h1861v-1861h-744v1489h-745v-1117h-372v-372h-745z" />
    <glyph glyph-name="uni043C" unicode="&#x43c;" 
d="M372 0v1861h745v-372h372v-372h372v372h373v372h744v-1861h-744v744h-373v-372h-372v372h-372v-744h-745z" />
    <glyph glyph-name="uni043D" unicode="&#x43d;" 
d="M372 0v1861h745v-744h1117v744h744v-1861h-744v744h-1117v-744h-745z" />
    <glyph glyph-name="uni043E" unicode="&#x43e;" 
d="M2234 372v1117h-1117v-1117h1117zM744 0v372h-372v1117h372v372h1862v-372h372v-1117h-372v-372h-1862z" />
    <glyph glyph-name="uni043F" unicode="&#x43f;" 
d="M372 0v1861h2606v-1861h-744v1489h-1117v-1489h-745z" />
    <glyph glyph-name="uni0440" unicode="&#x440;" 
d="M2234 372v1117h-1117v-1117h1117zM372 -1117v2978h2234v-372h372v-1117h-372v-372h-1489v-1117h-745z" />
    <glyph glyph-name="uni0441" unicode="&#x441;" 
d="M744 0v372h-372v1117h372v372h1862v-372h372v-372h-744v372h-1117v-1117h1117v372h744v-372h-372v-372h-1862z" />
    <glyph glyph-name="uni0442" unicode="&#x442;" horiz-adv-x="2792" 
d="M1117 0v1489h-745v372h2234v-372h-745v-1489h-744z" />
    <glyph glyph-name="uni0443" unicode="&#x443;" 
d="M744 -1117v373h1490v744h-1490v372h-372v1489h745v-1489h1117v1489h744v-2605h-372v-373h-1862z" />
    <glyph glyph-name="uni0444" unicode="&#x444;" horiz-adv-x="3909" 
d="M1675 372v1117h-558v-1117h558zM2978 372v1117h-558v-1117h558zM1675 -1117v1117h-931v372h-372v1117h372v372h931v1117h745v-1117h931v-372h372v-1117h-372v-372h-931v-1117h-745z" />
    <glyph glyph-name="uni0445" unicode="&#x445;" 
d="M372 0v372h372v372h373v373h-373v372h-372v372h745v-372h372v-186h372v186h373v372h744v-372h-372v-372h-372v-373h372v-372h372v-372h-744v372h-373v186h-372v-186h-372v-372h-745z" />
    <glyph glyph-name="uni0446" unicode="&#x446;" horiz-adv-x="3537" 
d="M2606 -558v558h-2234v1861h745v-1489h1117v1489h744v-1489h373v-930h-745z" />
    <glyph glyph-name="uni0447" unicode="&#x447;" 
d="M2234 0v558h-1490v372h-372v931h745v-931h1117v931h744v-1861h-744z" />
    <glyph glyph-name="uni0448" unicode="&#x448;" horiz-adv-x="3537" 
d="M372 0v1861h745v-1489h372v1489h745v-1489h372v1489h745v-1861h-2979z" />
    <glyph glyph-name="uni0449" unicode="&#x449;" horiz-adv-x="3909" 
d="M2978 -558v558h-2606v1861h745v-1489h372v1489h745v-1489h372v1489h745v-1489h372v-930h-745z" />
    <glyph glyph-name="uni044A" unicode="&#x44a;" horiz-adv-x="3723" 
d="M2792 372v372h-1117v-372h1117zM930 0v1489h-558v372h1303v-744h1490v-373h372v-372h-372v-372h-2235z" />
    <glyph glyph-name="uni044B" unicode="&#x44b;" horiz-adv-x="3909" 
d="M1861 372v372h-744v-372h744zM372 0v1861h745v-744h1117v-373h372v-372h-372v-372h-1862zM2978 0v1861h745v-1861h-745z" />
    <glyph glyph-name="uni044C" unicode="&#x44c;" 
d="M2234 372v372h-1117v-372h1117zM372 0v1861h745v-744h1489v-373h372v-372h-372v-372h-2234z" />
    <glyph glyph-name="uni044D" unicode="&#x44d;" 
d="M744 0v372h-372v372h745v-372h1117v372h-745v373h745v372h-1117v-372h-745v372h372v372h1862v-372h372v-1117h-372v-372h-1862z" />
    <glyph glyph-name="uni044E" unicode="&#x44e;" horiz-adv-x="4282" 
d="M3351 372v1117h-1117v-1117h1117zM372 0v1861h745v-744h372v372h372v372h1862v-372h373v-1117h-373v-372h-1862v372h-372v372h-372v-744h-745z" />
    <glyph glyph-name="uni044F" unicode="&#x44f;" 
d="M2234 1117v372h-1117v-372h1117zM372 0v744h372v373h-372v372h372v372h2234v-1861h-744v744h-1117v-744h-745z" />
    <glyph glyph-name="uni0450" unicode="&#x450;" 
d="M2234 1117v372h-1117v-372h1117zM744 0v372h-372v1117h372v372h1862v-372h372v-745h-1861v-372h1489v-372h-1862zM1303 2234v372h-373v372h745v-372h373v-372h-745z" />
    <glyph glyph-name="uni0451" unicode="&#x451;" 
d="M2234 1117v372h-1117v-372h1117zM744 0v372h-372v1117h372v372h1862v-372h372v-745h-1861v-372h1489v-372h-1862zM744 2234v744h745v-744h-745zM1861 2234v744h745v-744h-745z" />
    <glyph glyph-name="uni0453" unicode="&#x453;" horiz-adv-x="2420" 
d="M372 0v1861h1862v-372h-1117v-1489h-745zM930 2234v372h373v372h745v-372h-373v-372h-745z" />
    <glyph glyph-name="uni0454" unicode="&#x454;" 
d="M744 0v372h-372v1117h372v372h1862v-372h372v-372h-744v372h-1117v-372h744v-373h-744v-372h1117v372h744v-372h-372v-372h-1862z" />
    <glyph glyph-name="uni0456" unicode="&#x456;" horiz-adv-x="1303" 
d="M372 0v1861h745v-1861h-745zM372 2234v744h745v-744h-745z" />
    <glyph glyph-name="uni0457" unicode="&#x457;" horiz-adv-x="1861" 
d="M372 0v1861h745v-1861h-745zM-186 2234v744h744v-744h-744zM930 2234v744h745v-744h-745z" />
    <glyph glyph-name="uni0459" unicode="&#x459;" horiz-adv-x="4654" 
d="M3723 372v372h-745v-372h745zM372 0v372h372v1489h2234v-744h1118v-373h372v-372h-372v-372h-1862v1489h-745v-1117h-372v-372h-745z" />
    <glyph glyph-name="uni045A" unicode="&#x45a;" horiz-adv-x="4654" 
d="M3723 372v372h-745v-372h745zM372 0v1861h745v-744h1117v744h744v-744h1118v-373h372v-372h-372v-372h-1862v744h-1117v-744h-745z" />
    <glyph glyph-name="uni045B" unicode="&#x45b;" 
d="M372 0v2234h-372v372h372v372h745v-372h744v-372h-744v-745h372v372h1117v-372h372v-1489h-744v1489h-373v-372h-744v-1117h-745z" />
    <glyph glyph-name="uni045C" unicode="&#x45c;" horiz-adv-x="2792" 
d="M372 0v1861h745v-744h372v372h372v372h745v-372h-372v-372h-373v-373h373v-372h372v-372h-745v372h-372v372h-372v-744h-745zM1117 2234v372h372v372h745v-372h-373v-372h-744z" />
    <glyph glyph-name="uni045D" unicode="&#x45d;" 
d="M372 0v1861h745v-931h372v373h372v372h373v186h744v-1861h-744v930h-373v-372h-372v-372h-372v-186h-745zM1303 2234v372h-373v372h745v-372h373v-372h-745z" />
    <glyph glyph-name="uni045E" unicode="&#x45e;" 
d="M744 -1117v373h1490v744h-1490v372h-372v1489h745v-1489h1117v1489h744v-2605h-372v-373h-1862zM930 2234v372h-372v372h745v-372h745v372h744v-372h-372v-372h-1490z" />
    <glyph glyph-name="uni0490" unicode="&#x490;" horiz-adv-x="2792" 
d="M372 0v2978h1489v559h745v-931h-1489v-2606h-745z" />
    <glyph glyph-name="uni0491" unicode="&#x491;" horiz-adv-x="2420" 
d="M372 0v1861h1117v559h745v-931h-1117v-1489h-745z" />
    <glyph glyph-name="uni0492" unicode="&#x492;" horiz-adv-x="2792" 
d="M372 0v1489h-372v372h372v1117h2234v-372h-1489v-745h744v-372h-744v-1489h-745z" />
    <glyph glyph-name="uni0493" unicode="&#x493;" horiz-adv-x="2420" 
d="M372 0v744h-372v373h372v744h1862v-372h-1117v-372h744v-373h-744v-744h-745z" />
    <glyph glyph-name="uni0496" unicode="&#x496;" horiz-adv-x="3909" 
d="M2978 -558v558h-372v1303h-372v-1303h-745v1303h-372v-1303h-745v1303h372v372h-372v1303h745v-1303h372v1303h745v-1303h372v1303h745v-1303h-373v-372h373v-931h372v-930h-745z" />
    <glyph glyph-name="uni0497" unicode="&#x497;" horiz-adv-x="3909" 
d="M2978 -558v558h-372v744h-372v-744h-745v744h-372v-744h-745v744h372v373h-372v744h745v-744h372v744h745v-744h372v744h745v-744h-373v-373h373v-372h372v-930h-745z" />
    <glyph glyph-name="uni049A" unicode="&#x49a;" horiz-adv-x="3537" 
d="M2606 -558v558h-372v744h-373v373h-372v372h-372v-1489h-745v2978h745v-1117h372v373h372v372h373v372h744v-372h-372v-372h-372v-373h-373v-372h373v-372h372v-373h372v-372h373v-930h-745z" />
    <glyph glyph-name="uni049B" unicode="&#x49b;" horiz-adv-x="3351" 
d="M2420 -558v558h-559v372h-372v372h-372v-744h-745v1861h745v-744h372v372h559v372h744v-372h-558v-372h-373v-373h373v-372h931v-930h-745z" />
    <glyph glyph-name="uni049C" unicode="&#x49c;" horiz-adv-x="3537" 
d="M372 0v2978h745v-1117h186v745h372v-745h186v373h373v372h372v372h745v-372h-373v-372h-372v-373h-372v-372h372v-372h372v-373h373v-744h-745v744h-372v373h-373v372h-186v-745h-372v745h-186v-1489h-745z" />
    <glyph glyph-name="uni049D" unicode="&#x49d;" 
d="M372 0v1861h745v-744h186v372h372v-372h186v372h373v372h744v-372h-372v-372h-372v-373h372v-372h372v-372h-744v372h-373v372h-186v-372h-372v372h-186v-744h-745z" />
    <glyph glyph-name="uni049E" unicode="&#x49e;" 
d="M372 0v2234h-372v372h372v372h745v-372h372v-372h-372v-373h372v373h372v372h373v372h744v-372h-372v-372h-372v-373h-373v-372h373v-372h372v-373h372v-744h-744v744h-373v373h-372v372h-372v-1489h-745z" />
    <glyph glyph-name="uni049F" unicode="&#x49f;" horiz-adv-x="2978" 
d="M372 0v2048h-372v372h372v558h745v-558h372v-372h-372v-931h372v372h559v372h744v-372h-558v-372h-373v-373h373v-372h372v-372h-745v372h-372v372h-372v-744h-745z" />
    <glyph glyph-name="uni04A0" unicode="&#x4a0;" horiz-adv-x="3723" 
d="M930 0v2606h-558v372h1303v-1117h373v373h372v372h372v372h745v-372h-372v-372h-373v-373h-372v-372h372v-372h373v-373h372v-744h-745v744h-372v373h-372v372h-373v-1489h-745z" />
    <glyph glyph-name="uni04A1" unicode="&#x4a1;" horiz-adv-x="3537" 
d="M930 0v1489h-558v372h1303v-744h373v372h372v372h931v-372h-559v-372h-372v-373h372v-372h559v-372h-931v372h-372v372h-373v-744h-745z" />
    <glyph glyph-name="uni04A2" unicode="&#x4a2;" horiz-adv-x="3537" 
d="M2606 -558v558h-372v1489h-1117v-1489h-745v2978h745v-1117h1117v1117h744v-2606h373v-930h-745z" />
    <glyph glyph-name="uni04A3" unicode="&#x4a3;" horiz-adv-x="3537" 
d="M2606 -558v558h-372v744h-1117v-744h-745v1861h745v-744h1117v744h744v-1489h373v-930h-745z" />
    <glyph glyph-name="uni04A4" unicode="&#x4a4;" horiz-adv-x="3723" 
d="M372 0v2978h745v-1117h1117v1117h1303v-372h-559v-2606h-744v1489h-1117v-1489h-745z" />
    <glyph glyph-name="uni04A5" unicode="&#x4a5;" horiz-adv-x="3909" 
d="M372 0v1861h745v-744h1117v744h1489v-372h-745v-1489h-744v744h-1117v-744h-745z" />
    <glyph glyph-name="uni04AC" unicode="&#x4ac;" 
d="M1861 -558v558h-558v2606h-931v372h2606v-372h-930v-2234h558v-930h-745z" />
    <glyph glyph-name="uni04AD" unicode="&#x4ad;" horiz-adv-x="2792" 
d="M1675 -558v558h-558v1489h-745v372h2234v-372h-745v-1117h559v-930h-745z" />
    <glyph glyph-name="quoteleft" unicode="&#x2018;" horiz-adv-x="1675" 
d="M372 1861v745h372v372h745v-372h-372v-745h-745z" />
    <glyph glyph-name="quoteright" unicode="&#x2019;" horiz-adv-x="1303" 
d="M0 1861v373h372v744h745v-744h-373v-373h-744z" />
    <glyph glyph-name="quotedblleft" unicode="&#x201c;" horiz-adv-x="2792" 
d="M372 1861v745h372v372h745v-372h-372v-745h-745zM1489 1861v745h372v372h745v-372h-372v-745h-745z" />
    <glyph glyph-name="quotedblright" unicode="&#x201d;" horiz-adv-x="2420" 
d="M0 1861v373h372v744h745v-744h-373v-373h-744zM1117 1861v373h372v744h745v-744h-373v-373h-744z" />
    <glyph glyph-name="Euro" unicode="&#x20ac;" horiz-adv-x="3537" 
d="M1303 0v372h-373v372h-186v186h-558v187h186v186h372v186h-558v186h186v186h372v373h373v372h372v372h1489v-372h373v-372h-745v372h-745v-372h-372v-373h931v-186h-186v-186h-745v-186h931v-186h-186v-187h-745v-186h372v-372h745v372h745v-372h-373v-372h-1675z" />
    <glyph glyph-name="uniFB00" unicode="&#xfb00;" horiz-adv-x="3909" 
d="M744 0v1489h-372v372h372v745h373v372h1117v-372h-745v-745h745v745h372v372h1117v-372h-745v-745h745v-372h-745v-1489h-744v1489h-745v-1489h-745z" />
    <glyph glyph-name="uniFB01" unicode="&#xfb01;" 
d="M744 0v1489h-372v372h372v745h373v372h1117v-372h-745v-745h1489v-1861h-744v1489h-745v-1489h-745z" />
    <glyph glyph-name="uniFB02" unicode="&#xfb02;" horiz-adv-x="3537" 
d="M2234 1861v745h-745v-745h745zM744 0v1489h-372v372h372v745h373v372h1861v-2606h373v-372h-745v372h-372v1117h-745v-1489h-745z" />
    <glyph glyph-name="uniFB03" unicode="&#xfb03;" horiz-adv-x="4654" 
d="M744 0v1489h-372v372h372v745h373v372h1117v-372h-745v-745h745v745h372v372h1117v-372h-745v-745h1490v-1861h-745v1489h-745v-1489h-744v1489h-745v-1489h-745z" />
    <glyph glyph-name="uniFB04" unicode="&#xfb04;" horiz-adv-x="5026" 
d="M3723 1861v745h-745v-745h745zM744 0v1489h-372v372h372v745h373v372h1117v-372h-745v-745h745v745h372v372h1862v-2606h372v-372h-744v372h-373v1117h-745v-1489h-744v1489h-745v-1489h-745z" />
  </font>
</defs>
</svg>
